# xmcd
#
# Track frame offsets:
#	150
#	14797
#	31254
#	50526
#	67848
#	84248
#	103232
#	121462
#	137219
#	160909
#	180155
#	196863
#	214535
#	233952
#	254970
#	272793
#	290675
#	309590
#
# Disc length: 4351 seconds
#
# Revision: 0
# Processed by: cddbd v1.4PL0 Copyright (c) Steve Scherf et al.
# Submitted via: dBpowerAMP V4.0
#
DISCID=0910fd12
DTITLE=Boa - No.1
DYEAR=1900
DGENRE=Pop
TTITLE0=No.1
TTITLE1=My Sweetie
TTITLE2=(Waiting..)
TTITLE3=Tragic
TTITLE4=Shy Love
TTITLE5=Day
TTITLE6=Dear my Love..
TTITLE7=(Beat It!)
TTITLE8=P.O.L(Power of Love)
TTITLE9=My Genie
TTITLE10=Pain-Love
TTITLE11=Happiness Lies
TTITLE12=Realize(Stay With Me)
TTITLE13=Azalea
TTITLE14=Listen to my Heart
TTITLE15=Listen to my Heart£¨ÈÕÎÄ°æ£©
TTITLE16=Listen to my Heart£¨Ó¢ÎÄ°æ£©
TTITLE17=Don`t Star Now
EXTD=NO.1,Boa
EXTT0=
EXTT1=
EXTT2=
EXTT3=
EXTT4=
EXTT5=
EXTT6=
EXTT7=
EXTT8=
EXTT9=
EXTT10=
EXTT11=
EXTT12=
EXTT13=
EXTT14=
EXTT15=
EXTT16=
EXTT17=
PLAYORDER=
